<svg viewBox="0 0 139 50" fill="none" xmlns="http://www.w3.org/2000/svg"><g clip-path="url(#a)" fill="#E6E6E6"><path d="M15.3 6.25h-15.24v36.46l15.25-36.46Zm10.73 0h15.23v36.46l-15.23-36.46Zm-5.36 13.44 9.7 23.02h-6.36l-2.9-7.33h-7.1l6.66-15.7Zm45.46 9.74 1.8 5.16c.06.13.15.19.3.19h3.46c.19 0 .22-.1.19-.28l-7.14-19.83c-.03-.16-.06-.2-.22-.2h-4.29c-.12 0-.19.1-.19.23a4.58 4.58 0 0 1-.28 1.66l-6.36 18.1c-.03.23.04.32.22.32h3.08c.2 0 .28-.06.35-.25l1.7-5.1h7.38Zm-6.4-3.36c.94-2.82 2.17-6.44 2.66-8.5h.03c.62 2.16 2.07 6.45 2.73 8.5h-5.42Zm21.33 9.01c1.86 0 3.83-.33 5.84-1.2.16-.06.19-.13.19-.28-.06-.55-.13-1.36-.13-1.97v-18.67c0-.12 0-.18-.15-.18h-3.37c-.13 0-.19.06-.19.22v6.32c-.52-.06-.89-.09-1.33-.09-5.43 0-8.77 3.59-8.77 8.07 0 5.2 3.43 7.78 7.9 7.78Zm2.2-3.45c-.56.18-1.18.25-1.8.25-2.47 0-4.48-1.4-4.48-4.77 0-2.99 2.07-4.76 4.82-4.76.56 0 1.05.06 1.45.22v9.06Zm14.57-12.4c-4.64 0-7.51 3.56-7.51 7.95 0 3.92 2.28 7.9 7.44 7.9 4.36 0 7.42-3.2 7.42-8 0-4.23-2.6-7.85-7.35-7.85Zm-.2 3.12c2.63 0 3.74 2.26 3.74 4.83 0 3.18-1.64 4.76-3.54 4.76-2.36 0-3.75-1.98-3.75-4.83 0-2.93 1.48-4.76 3.56-4.76Zm11.03-9.57c-.13 0-.22.06-.22.22v21.13c0 .09.09.25.22.28 1.48.46 3.03.67 4.63.67 4.57 0 9.02-2.84 9.02-8.56 0-4.14-2.84-7.29-7.29-7.29a8.8 8.8 0 0 0-2.8.44l-.05-6.64c0-.22-.06-.25-.28-.25h-3.23Zm9.85 14.12c0 3.43-2.34 5.04-4.88 5.04a4.9 4.9 0 0 1-1.42-.16v-9.02a5.5 5.5 0 0 1 2.16-.35c2.44 0 4.14 1.55 4.14 4.5Zm16.37 1.11c1.5 0 2.75-.03 3.18-.13.16-.03.22-.09.25-.21.08-.34.12-1.05.12-1.91 0-2.94-1.76-6.53-6.33-6.53-4.67 0-7.26 3.8-7.26 8.1 0 3.8 2 7.75 7.63 7.75 2.1 0 3.46-.33 4.63-.89.12-.06.18-.16.18-.34v-2.57c0-.15-.09-.18-.18-.12a9.7 9.7 0 0 1-3.83.75c-3.15 0-4.58-1.74-4.67-3.9h6.28Zm-6.28-2.66c.25-1.5 1.2-3.15 3.34-3.15 2.35 0 2.97 1.98 2.97 2.87v.25c-.13.03-.53.03-1.7.03h-4.6Z"/></g><defs><clipPath id="a"><path fill="#fff" transform="translate(.063)" d="M0 0h138.54v50h-138.54z"/></clipPath></defs></svg>