<svg viewBox="0 0 116 50" fill="none" xmlns="http://www.w3.org/2000/svg"><g clip-path="url(#a)" fill-rule="evenodd" clip-rule="evenodd" fill="#E6E6E6"><path d="M71.47 39.38c-6.63 4.89-16.23 7.5-24.5 7.5a44.35 44.35 0 0 1-29.95-11.43c-.62-.56-.06-1.33.68-.89a60.26 60.26 0 0 0 29.96 7.94c7.34 0 15.42-1.52 22.85-4.67 1.12-.47 2.06.74.96 1.55Z"/><path d="M74.23 36.23c-.85-1.08-5.6-.51-7.74-.26-.65.08-.75-.49-.16-.9 3.79-2.66 10-1.9 10.73-1 .72.9-.2 7.13-3.75 10.1-.55.46-1.07.22-.83-.38.8-2 2.6-6.47 1.75-7.56Zm-7.59-19.98v-2.59c0-.39.3-.65.66-.65h11.6c.37 0 .67.26.67.65v2.22c0 .37-.32.86-.87 1.63l-6.01 8.59c2.23-.06 4.59.27 6.61 1.42.46.25.59.63.62 1v2.77c0 .38-.42.82-.85.59a13.37 13.37 0 0 0-12.26.02c-.4.22-.83-.22-.83-.6v-2.62c0-.43 0-1.14.43-1.79l6.97-9.99h-6.07c-.37 0-.67-.26-.67-.65Zm-42.33 16.18h-3.53a.67.67 0 0 1-.63-.6v-18.12c0-.37.3-.65.68-.65h3.3c.34.01.61.27.64.6v2.37h.06c.86-2.29 2.47-3.36 4.65-3.36 2.2 0 3.59 1.07 4.58 3.36a5 5 0 0 1 4.88-3.36 5 5 0 0 1 4.08 1.98c1.12 1.53.9 3.74.9 5.69l-.01 11.43c0 .36-.3.66-.68.66h-3.53a.67.67 0 0 1-.63-.66v-9.6c0-.77.06-2.67-.1-3.4-.27-1.22-1.06-1.56-2.08-1.56-.85 0-1.75.57-2.11 1.49-.36.91-.33 2.44-.33 3.47v9.6c0 .36-.3.66-.68.66h-3.52a.67.67 0 0 1-.64-.66v-9.6c0-2.02.33-5-2.18-5-2.54 0-2.44 2.9-2.44 5v9.6c0 .36-.3.66-.68.66Zm65.25-19.76c5.24 0 8.08 4.5 8.08 10.22 0 5.53-3.14 9.91-8.08 9.91-5.14 0-7.94-4.5-7.94-10.1 0-5.64 2.83-10.03 7.94-10.03Zm.03 3.7c-2.6 0-2.76 3.55-2.76 5.76s-.04 6.94 2.73 6.94c2.74 0 2.87-3.81 2.87-6.14 0-1.53-.07-3.35-.53-4.8-.4-1.27-1.19-1.76-2.3-1.76Zm14.84 16.06h-3.52a.67.67 0 0 1-.63-.66v-18.12c.02-.34.32-.6.67-.6h3.27a.7.7 0 0 1 .64.51v2.77h.06c.99-2.47 2.37-3.66 4.81-3.66 1.59 0 3.13.57 4.12 2.14.93 1.45.93 3.89.93 5.64v11.4a.68.68 0 0 1-.68.58h-3.54a.67.67 0 0 1-.63-.58v-9.84c0-1.98.23-4.88-2.2-4.88-.87 0-1.66.58-2.05 1.45a8.03 8.03 0 0 0-.56 3.43v9.76c0 .36-.31.66-.7.66Zm-47.03-8.66c0 1.38.03 2.52-.67 3.75-.56.99-1.45 1.6-2.44 1.6-1.36 0-2.15-1.03-2.15-2.56 0-3 2.7-3.55 5.25-3.55v.76Zm3.55 8.6a.74.74 0 0 1-.83.1c-1.17-.98-1.39-1.43-2.03-2.36-1.93 1.97-3.31 2.56-5.82 2.56-2.97 0-5.28-1.83-5.28-5.5a6 6 0 0 1 3.76-5.77c1.92-.84 4.6-.99 6.64-1.22v-.46c0-.84.07-1.83-.43-2.56-.43-.65-1.25-.92-1.98-.92-1.35 0-2.54.7-2.84 2.12-.06.32-.29.63-.61.65l-3.42-.37c-.3-.06-.61-.3-.53-.74.79-4.15 4.54-5.4 7.9-5.4 1.71 0 3.96.46 5.31 1.76 1.72 1.6 1.56 3.74 1.56 6.07v5.5c0 1.66.68 2.38 1.33 3.27.22.32.27.7-.02.94-.72.6-2 1.72-2.7 2.35v-.01Zm-49.84-8.6c0 1.38.04 2.52-.66 3.75-.56.99-1.45 1.6-2.44 1.6-1.36 0-2.15-1.03-2.15-2.56 0-3 2.7-3.55 5.25-3.55v.76Zm3.56 8.6a.74.74 0 0 1-.83.1c-1.18-.98-1.38-1.43-2.03-2.36-1.94 1.97-3.3 2.56-5.82 2.56-2.97 0-5.28-1.83-5.28-5.5a6 6 0 0 1 3.76-5.77c1.92-.84 4.6-.99 6.64-1.22v-.46c0-.84.06-1.83-.43-2.56-.43-.65-1.25-.92-1.98-.92-1.34 0-2.55.7-2.84 2.12-.06.32-.3.63-.6.65l-3.43-.37c-.3-.06-.61-.3-.53-.74.79-4.15 4.54-5.4 7.9-5.4 1.71 0 3.96.46 5.31 1.76 1.72 1.6 1.56 3.74 1.56 6.07v5.5c0 1.66.68 2.38 1.33 3.27.22.32.27.7-.01.94-.72.6-2 1.72-2.71 2.35v-.01Z"/></g><defs><clipPath id="a"><path fill="#fff" transform="translate(.708)" d="M0 0h114.58v50h-114.58z"/></clipPath></defs></svg>