<svg viewBox="0 0 127 50" fill="none" xmlns="http://www.w3.org/2000/svg"><g clip-path="url(#a)" fill="#E6E6E6"><path d="m40.15 33.78 1.53-3.57a10.26 10.26 0 0 0 6.04 1.9c1.6 0 2.62-.63 2.62-1.58-.03-2.62-9.64-.58-9.72-7.18-.03-3.36 2.95-5.95 7.18-5.95 2.5 0 5.02.62 6.8 2.05l-1.43 3.65a10.74 10.74 0 0 0-5.6-1.8c-1.3 0-2.18.63-2.18 1.43.04 2.59 9.72 1.17 9.83 7.48 0 3.42-2.91 5.83-7.06 5.83-3.06 0-5.86-.73-8.01-2.26Zm60.9-4.87a4.44 4.44 0 0 1-8.31-2.19 4.45 4.45 0 0 1 8.3-2.19l4.26-2.36a9.3 9.3 0 0 0-17.42 4.55 9.31 9.31 0 0 0 17.42 4.55l-4.25-2.36Zm-43.07 6.77h5.32v-26.04h-5.32v26.04Zm50-26.04v26.04h5.32v-7.8l6.3 7.8h6.79l-8.01-9.27 7.43-8.64h-6.5l-6.01 7.18v-15.3h-5.32Zm-28.3 8.13v2.11c-.88-1.46-3.03-2.48-5.29-2.48-4.66 0-8.33 4.12-8.33 9.3 0 5.18 3.67 9.34 8.33 9.34 2.26 0 4.4-1.02 5.28-2.48v2.12h5.32v-17.91h-5.32Zm0 11.18a4.9 4.9 0 0 1-4.16 2.22 4.45 4.45 0 0 1 0-8.9c1.79 0 3.39.99 4.15 2.3v4.38Zm-67.6-19.88a3.12 3.12 0 0 0 0 6.25h3.12v-3.13a3.12 3.12 0 0 0-3.12-3.12Zm0 8.33h-8.31a3.12 3.12 0 0 0 0 6.25h8.31a3.12 3.12 0 0 0 0-6.25Zm19.75 3.12a3.12 3.12 0 1 0-6.23 0v3.13h3.11a3.12 3.12 0 0 0 3.12-3.13Zm-8.31 0v-8.33a3.12 3.12 0 1 0-6.24 0v8.33a3.12 3.12 0 1 0 6.24 0m-3.12 19.8a3.12 3.12 0 0 0 0-6.25h-3.12v3.12c0 1.73 1.4 3.13 3.12 3.13Zm0-8.34h8.32a3.12 3.12 0 0 0 0-6.25h-8.32a3.12 3.12 0 0 0 0 6.25m-19.75-3.12a3.12 3.12 0 1 0 6.23 0v-3.13h-3.11a3.12 3.12 0 0 0-3.12 3.13Zm8.31 0v8.33a3.12 3.12 0 1 0 6.24 0v-8.33a3.12 3.12 0 1 0-6.24 0Z"/></g><defs><clipPath id="a"><path fill="#fff" transform="translate(.646)" d="M0 0h126.04v50h-126.04z"/></clipPath></defs></svg>