<svg viewBox="0 0 146 50" fill="none" xmlns="http://www.w3.org/2000/svg"><g clip-path="url(#a)"><path d="M22.04 3.2a21.88 21.88 0 1 0 0 43.76 21.88 21.88 0 0 0 0-43.75Zm10.03 31.56c-.4.64-1.23.84-1.88.45-5.13-3.14-11.6-3.85-19.21-2.1a1.36 1.36 0 0 1-.61-2.67c8.33-1.9 15.48-1.08 21.25 2.44.64.4.84 1.23.45 1.88Zm2.68-5.96a1.7 1.7 0 0 1-2.35.56c-5.88-3.61-14.84-4.66-21.8-2.55a1.7 1.7 0 0 1-.99-3.26c7.94-2.41 17.82-1.24 24.57 2.9.8.5 1.06 1.55.57 2.35Zm.23-6.2c-7.05-4.19-18.69-4.57-25.42-2.53a2.05 2.05 0 1 1-1.19-3.92c7.73-2.34 20.58-1.89 28.7 2.93a2.04 2.04 0 1 1-2.1 3.52Zm24.7.8c-3.78-.9-4.45-1.53-4.45-2.86 0-1.26 1.18-2.1 2.94-2.1 1.7 0 3.39.64 5.16 1.96.05.04.12.06.18.05a.24.24 0 0 0 .17-.1l1.84-2.6a.25.25 0 0 0-.04-.34 11.16 11.16 0 0 0-7.26-2.51c-4.08 0-6.93 2.44-6.93 5.95 0 3.75 2.46 5.08 6.7 6.1 3.62.84 4.23 1.54 4.23 2.78 0 1.39-1.23 2.25-3.21 2.25-2.21 0-4-.75-6.02-2.49a.26.26 0 0 0-.18-.06.24.24 0 0 0-.17.09l-2.07 2.46c-.09.1-.08.25.02.34a12.33 12.33 0 0 0 8.33 3.2c4.4 0 7.23-2.4 7.23-6.12.01-3.14-1.87-4.88-6.47-6Zm16.42-3.72c-1.9 0-3.47.75-4.76 2.28v-1.73a.25.25 0 0 0-.25-.24h-3.38a.25.25 0 0 0-.24.24v19.23c0 .14.1.25.24.25h3.38c.14 0 .25-.11.25-.25v-6.07a6.08 6.08 0 0 0 4.76 2.15c3.54 0 7.12-2.72 7.12-7.93 0-5.2-3.58-7.93-7.12-7.93Zm3.19 7.93c0 2.65-1.64 4.5-3.98 4.5-2.3 0-4.05-1.93-4.05-4.5 0-2.57 1.74-4.5 4.05-4.5 2.3 0 3.98 1.9 3.98 4.5Zm13.11-7.93a7.98 7.98 0 0 0-8.13 7.99 7.9 7.9 0 0 0 8.08 7.9c4.57 0 8.15-3.5 8.15-7.96a7.93 7.93 0 0 0-8.1-7.93Zm0 12.46c-2.42 0-4.25-1.95-4.25-4.53 0-2.6 1.77-4.48 4.2-4.48 2.44 0 4.28 1.95 4.28 4.54s-1.78 4.47-4.23 4.47Zm17.84-12.15h-3.73v-3.81c0-.14-.1-.25-.24-.25h-3.38a.25.25 0 0 0-.25.25v3.8h-1.63a.25.25 0 0 0-.24.25v2.91c0 .14.1.25.24.25h1.63v7.52c0 3.04 1.5 4.58 4.5 4.58 1.2 0 2.21-.25 3.16-.79a.24.24 0 0 0 .13-.21v-2.77a.25.25 0 0 0-.36-.22c-.65.32-1.28.48-1.99.48-1.08 0-1.57-.5-1.57-1.6v-7h3.73c.13 0 .24-.1.24-.24v-2.9c0-.14-.1-.25-.24-.25Zm12.96.01v-.47c0-1.37.53-1.99 1.71-1.99.7 0 1.27.14 1.9.36.09.02.17 0 .23-.04s.1-.12.1-.2v-2.85c0-.1-.07-.2-.17-.24a9.3 9.3 0 0 0-2.81-.4c-3.13 0-4.78 1.76-4.78 5.08v.72h-1.62a.25.25 0 0 0-.25.25v2.92c0 .14.11.25.25.25h1.62v11.6c0 .14.11.25.25.25h3.38c.14 0 .25-.11.25-.25v-11.6h3.16l4.83 11.6c-.54 1.21-1.09 1.46-1.82 1.46-.6 0-1.23-.18-1.87-.53a.27.27 0 0 0-.2-.02.25.25 0 0 0-.14.13l-1.15 2.52c-.05.12 0 .26.11.32 1.2.65 2.28.92 3.61.92 2.5 0 3.88-1.16 5.1-4.3l5.86-15.15a.24.24 0 0 0-.03-.23.24.24 0 0 0-.2-.1h-3.52c-.1 0-.2.06-.23.16l-3.61 10.3-3.95-10.31a.25.25 0 0 0-.23-.16h-5.78Zm-7.52-.01h-3.38a.25.25 0 0 0-.25.24v14.76c0 .14.12.25.25.25h3.39c.13 0 .24-.11.24-.25v-14.76a.25.25 0 0 0-.25-.24Zm-1.67-6.72a2.43 2.43 0 1 0 0 4.85 2.43 2.43 0 0 0 0-4.85Zm29.63 11.46a2.37 2.37 0 0 1-2.38-2.38 2.4 2.4 0 0 1 2.4-2.4 2.37 2.37 0 0 1 2.37 2.39 2.4 2.4 0 0 1-2.39 2.39Zm.01-4.54c-1.22 0-2.14.97-2.14 2.16a2.1 2.1 0 0 0 2.13 2.14c1.22 0 2.14-.97 2.14-2.15a2.1 2.1 0 0 0-2.13-2.15Zm.53 2.39.67.94h-.56l-.61-.86h-.52v.86h-.47v-2.5h1.1c.59 0 .97.3.97.8 0 .41-.23.66-.58.76Zm-.4-1.13h-.62v.8h.62c.3 0 .5-.16.5-.4 0-.26-.2-.4-.5-.4Z" fill="#E6E6E6"/></g><defs><clipPath id="a"><path fill="#fff" transform="translate(.083)" d="M0 0h145.83v50h-145.83z"/></clipPath></defs></svg>