<svg viewBox="0 0 101 50" fill="none" xmlns="http://www.w3.org/2000/svg"><g clip-path="url(#a)" fill="#E6E6E6"><path d="m.67 36.87 10.26-15.97h-9.05a9.3 9.3 0 0 1 0-3h14.65l.19.49-10.34 16h9.7a10.4 10.4 0 0 1 0 3h-15.23l-.18-.52Zm29.63-12.32c0-1.5-.4-2.54-1.15-3.13a5.36 5.36 0 0 0-3.3-.87 14 14 0 0 0-2.5.2c-.77.15-1.52.32-2.26.55a5.91 5.91 0 0 1-.72-3 20.56 20.56 0 0 1 5.85-.88c2.53 0 4.45.59 5.78 1.74 1.31 1.15 1.98 3 1.98 5.53v12.2c-.88.2-1.96.42-3.23.63-1.27.22-2.56.31-3.88.31-1.23 0-2.36-.1-3.36-.34a6.9 6.9 0 0 1-2.55-1.1 5.07 5.07 0 0 1-1.62-1.94 6.48 6.48 0 0 1-.57-2.85 5.9 5.9 0 0 1 2.47-4.92 7.84 7.84 0 0 1 2.63-1.21 11.8 11.8 0 0 1 3.12-.41 27.1 27.1 0 0 1 3.31.19v-.7Zm0 3.69c-.4-.06-.87-.1-1.46-.16a15.9 15.9 0 0 0-1.47-.07c-1.58 0-2.78.3-3.6.87-.82.58-1.24 1.47-1.24 2.67 0 .75.15 1.35.42 1.78.27.43.63.76 1.04.99.42.23.88.37 1.4.41a17.29 17.29 0 0 0 3.25-.02c.62-.06 1.17-.15 1.65-.28v-6.2Zm7.8-10.34a9.9 9.9 0 0 1 3.2 0l.09.47c.03.26.08.55.1.85l.12.88.05.54c.25-.41.56-.8.91-1.19a6.45 6.45 0 0 1 2.95-1.75 8.62 8.62 0 0 1 5.25.3c.97.39 1.8.97 2.5 1.77a8.5 8.5 0 0 1 1.64 3.05c.4 1.22.59 2.68.59 4.36 0 3.35-.91 5.97-2.72 7.85-1.82 1.88-4.38 2.84-7.7 2.84a13.02 13.02 0 0 1-3.23-.42v8.94a14.75 14.75 0 0 1-2.84.11 9.94 9.94 0 0 1-.93-.1v-28.5h.01Zm3.76 16.3c.48.18.97.32 1.48.4.5.07 1.16.1 1.98.1.91 0 1.75-.14 2.51-.44a5.2 5.2 0 0 0 1.96-1.34c.55-.62.98-1.38 1.3-2.3.31-.93.46-2.03.46-3.3 0-2.02-.37-3.63-1.11-4.82-.75-1.2-1.97-1.79-3.67-1.79a4.56 4.56 0 0 0-3.39 1.37 5.11 5.11 0 0 0-1.1 1.73c-.29.7-.42 1.52-.42 2.49v7.9Zm18.33-13.35h-2.48a9.44 9.44 0 0 1-.1-2.26c.01-.26.06-.5.1-.7h6.17v19.52a14.75 14.75 0 0 1-2.76.11 9.9 9.9 0 0 1-.93-.11v-16.56Zm11.79 7.73c.05 2.12.6 3.69 1.65 4.68 1.05.98 2.6 1.47 4.66 1.47 1.8 0 3.51-.31 5.13-.95.21.38.38.84.5 1.4.13.54.2 1.08.23 1.61-.84.35-1.76.63-2.76.8-1 .18-2.12.27-3.33.27-1.78 0-3.3-.26-4.57-.75a8.17 8.17 0 0 1-3.14-2.1 8.3 8.3 0 0 1-1.8-3.19 13.53 13.53 0 0 1-.57-4.05c0-1.45.18-2.8.54-4.06a9.12 9.12 0 0 1 1.7-3.27 8.12 8.12 0 0 1 2.86-2.2 9.44 9.44 0 0 1 4.09-.83 8.5 8.5 0 0 1 3.54.7 7.25 7.25 0 0 1 2.55 1.88c.68.8 1.2 1.75 1.55 2.85a11.82 11.82 0 0 1 .5 4.7c-.02.4-.06.74-.08 1.02h-13.25v.02Zm9.66-2.82c0-.71-.1-1.39-.29-2.04a5.17 5.17 0 0 0-.83-1.68 4.15 4.15 0 0 0-3.44-1.6c-1.54 0-2.73.47-3.56 1.4a6.9 6.9 0 0 0-1.5 3.92h9.62Zm7.87-7.86a7.36 7.36 0 0 1 1.6-.15 10.58 10.58 0 0 1 1.6.15 20.82 20.82 0 0 1 .33 3.07 7.9 7.9 0 0 1 2.12-2.24c.87-.64 2-.96 3.36-.96a11.84 11.84 0 0 1 1.17.08 9.19 9.19 0 0 1 .09 2.48c-.03.33-.09.64-.13.95a2.72 2.72 0 0 0-.63-.08h-.51c-.68 0-1.34.1-1.96.29-.63.19-1.19.52-1.68 1-.5.49-.89 1.15-1.18 1.99-.3.83-.44 1.92-.44 3.23v9.7a14.75 14.75 0 0 1-2.8.1c-.33-.02-.66-.06-.97-.1v-19.51h.03Zm-22.05-11.49h-3.68l2.6-2.6a5.33 5.33 0 0 0-1.49-1.49l-2.6 2.6v-3.68a6.6 6.6 0 0 0-1.05-.08h-.01c-.36 0-.71.03-1.05.08v3.68l-2.61-2.6a6.05 6.05 0 0 0-1.49 1.49l2.62 2.6h-3.68s-.1.7-.1 1.06c0 .36.04.7.1 1.05h3.68l-2.61 2.6c.4.58.9 1.08 1.49 1.5l2.6-2.61v3.68c.35.05.7.09 1.06.09h.01c.36 0 .71-.04 1.05-.1v-3.67l2.6 2.6a5.33 5.33 0 0 0 1.49-1.49l-2.6-2.6h3.68c.06-.34.09-.7.09-1.05v-.01c-.01-.36-.03-.7-.1-1.05Zm-4.64 1.07c0 .47-.1.92-.24 1.33a3.86 3.86 0 0 1-2.68 0 3.86 3.86 0 0 1-.24-1.33v-.01c0-.47.09-.92.24-1.34a3.86 3.86 0 0 1 2.68 0c.15.42.24.87.24 1.35Z"/></g><defs><clipPath id="a"><path fill="#fff" transform="translate(.667)" d="M0 0h100v50h-100z"/></clipPath></defs></svg>