<svg viewBox="0 0 103 50" fill="none" xmlns="http://www.w3.org/2000/svg"><g clip-path="url(#a)"><path fill-rule="evenodd" clip-rule="evenodd" d="M83.32 21.46c.39.67.52 1.44.56 2.3l.05 1.14v8.02l.06 1.15a3.52 3.52 0 0 0 3.39 3.38l1.14.05v-12.6l.05-1.14c.05-.85.18-1.63.57-2.31a4.58 4.58 0 0 1 7.93.01c.4.68.51 1.45.56 2.3l.06 1.14v8.02l.05 1.15a3.5 3.5 0 0 0 3.39 3.38l1.14.05v-13.74a9.17 9.17 0 0 0-16.04-6.07 9.15 9.15 0 0 0-12-1.53c-.9-1-2.9-1.57-4.05-1.57v22.91l1.15-.05a3.45 3.45 0 0 0 3.38-3.38l.06-1.15v-8.02l.06-1.14c.05-.87.17-1.63.56-2.3a4.59 4.59 0 0 1 7.93 0Zm-78.45 15.99 1.15.05h17.19l-.06-1.14a3.55 3.55 0 0 0-3.38-3.38l-1.15-.06h-10.3l13.74-13.75-.06-1.14a3.47 3.47 0 0 0-3.38-3.39l-1.14-.05h-17.19l.06 1.14a3.55 3.55 0 0 0 3.38 3.38l1.14.06h10.31l-13.74 13.75.05 1.15a3.5 3.5 0 0 0 3.38 3.38Zm60.82-19.5a11.46 11.46 0 1 1-16.2 16.2 11.46 11.46 0 0 1 16.2-16.2Zm-3.25 3.24a6.88 6.88 0 1 1-9.73 9.72 6.88 6.88 0 0 1 9.73-9.72Zm-28.91-6.6a11.45 11.45 0 1 1-.02 0h.02Zm4.85 6.6a6.88 6.88 0 1 1-9.73 9.72 6.88 6.88 0 0 1 9.73-9.73Z" fill="#E6E6E6"/></g><defs><clipPath id="a"><path fill="#fff" transform="translate(.292)" d="M0 0h102.08v50h-102.08z"/></clipPath></defs></svg>